<?xml version="1.0" encoding="UTF-8"?>
<svg width="30px" height="30px" viewBox="0 0 30 30" version="1.1" xmlns="http://www.w3.org/2000/svg" xmlns:xlink="http://www.w3.org/1999/xlink">
    <!-- Generator: Sketch 46.2 (44496) - http://www.bohemiancoding.com/sketch -->
    <title>01</title>
    <desc>Created with Sketch.</desc>
    <defs></defs>
    <g id="ICO" stroke="none" stroke-width="1" fill="none" fill-rule="evenodd">
        <g id="01" fill-rule="nonzero" fill="#333333">
            <g id="Group" transform="translate(0.000000, 4.000000)">
                <path d="M1.57894737,0.140500862 C0.706934211,0.140500862 0,0.835203879 0,1.692225 C0,2.54924224 0.706934211,3.24394914 1.57894737,3.24394914 L28.4210526,3.24394914 C29.2930658,3.24394914 30,2.54924224 30,1.692225 C30,0.835203879 29.2930658,0.140500862 28.4210526,0.140500862 L1.57894737,0.140500862 Z M1.57894737,9.45089224 C0.706934211,9.45089224 0,10.1455991 0,11.0026164 C0,11.8596336 0.706934211,12.5543405 1.57894737,12.5543405 L28.4210526,12.5543405 C29.2930658,12.5543405 30,11.8596336 30,11.0026164 C30,10.1455991 29.2930658,9.45089224 28.4210526,9.45089224 L1.57894737,9.45089224 Z M1.57894737,18.7611983 C0.706934211,18.7611983 0,19.4559052 0,20.3129224 C0,21.1699397 0.706934211,21.8646466 1.57894737,21.8646466 L28.4210526,21.8646466 C29.2930658,21.8646466 30,21.1699397 30,20.3129224 C30,19.4559052 29.2930658,18.7611983 28.4210526,18.7611983 L1.57894737,18.7611983 Z" id="Shape"></path>
            </g>
        </g>
    </g>
</svg>