<?xml version="1.0" encoding="UTF-8"?>
<svg width="50px" height="50px" viewBox="0 0 50 50" version="1.1" xmlns="http://www.w3.org/2000/svg" xmlns:xlink="http://www.w3.org/1999/xlink">
    <!-- Generator: Sketch 46.2 (44496) - http://www.bohemiancoding.com/sketch -->
    <title>Artboard</title>
    <desc>Created with Sketch.</desc>
    <defs></defs>
    <g id="Page-1" stroke="none" stroke-width="1" fill="none" fill-rule="evenodd">
        <g id="Artboard" fill-rule="nonzero" fill="#FFFFFF">
            <path d="M22.7580537,10.946356 C22.8479961,10.8936679 22.9501792,10.8510916 23.067264,10.8223526 C24.2625937,10.5280439 25.2876181,10.0304334 25.295069,10.0272401 C25.3929945,9.8659824 25.444086,9.63340936 25.4696318,9.46736179 C25.164679,9.06767677 25.0231128,8.58762898 24.9597806,8.17623547 C24.8474856,8.16718801 24.6990008,8.00752688 24.5398718,7.43806886 C24.3216683,6.65892256 24.5531769,6.54343434 24.7495601,6.56206147 C24.6053329,6.15279679 24.6026719,5.74991854 24.6990008,5.37737591 C24.8006517,4.93884001 25.0348213,4.58758553 25.29773,4.31562941 C25.4637776,4.13680895 25.6521777,3.98034104 25.8517541,3.85261214 C26.0140762,3.73872054 26.1939611,3.64079505 26.3898121,3.57373737 L26.3898121,3.57373737 L26.3898121,3.57373737 C26.5430868,3.52158141 26.7064733,3.48752036 26.8789074,3.47953731 C27.4127077,3.43270338 27.8171826,3.56788313 28.1072336,3.74191376 C28.5409797,3.98406647 28.7054307,4.30392093 28.7054307,4.30392093 C28.7054307,4.30392093 29.7964484,4.38162268 29.3190616,6.69458021 L29.3190616,6.69458021 C29.4659498,6.74620398 29.5691973,6.94950581 29.3994244,7.55781471 C29.1902683,8.30609319 28.9997393,8.34707288 28.8853155,8.26830672 C28.8182578,8.65096123 28.6804171,9.07991745 28.4095254,9.44607364 C28.4366678,9.63021614 28.4962746,9.91121972 28.6208103,10.0772673 C28.6208103,10.0772673 29.6160313,10.5275117 30.8150863,10.8228848 C30.9321712,10.8516238 31.0343543,10.8942001 31.1242967,10.9468882 C30.2200825,12.2922993 28.6836103,13.1778864 26.940643,13.1778864 C25.1987401,13.1773542 23.6622678,12.2922993 22.7580537,10.946356 Z M15.2768654,26.1716411 C15.1177365,25.9592918 15.0416314,25.6000543 15.0070381,25.3648202 C15.3535028,24.8970131 15.52913,24.3483111 15.6148148,23.8592158 C15.7611708,23.9598023 16.004388,23.9071142 16.2720865,22.950744 C16.4897578,22.1737265 16.3572391,21.9129467 16.1693711,21.8474856 L16.1693711,21.8474856 C16.7798088,18.8905615 15.3849028,18.7910394 15.3849028,18.7910394 C15.3849028,18.7910394 15.1746823,18.3817747 14.620126,18.0720321 C14.2486478,17.849571 13.7318779,17.6766048 13.0495927,17.7362116 C12.8287281,17.7468557 12.6201043,17.7899642 12.4242533,17.8570218 L12.4242533,17.8570218 L12.4237211,17.8570218 C12.1730531,17.9427066 11.9431411,18.0677745 11.7355816,18.2135983 C11.480656,18.3769849 11.2395677,18.5770935 11.0272184,18.8054089 C10.6908656,19.152938 10.3912349,19.602118 10.2613772,20.1630607 C10.1379059,20.6393831 10.1416314,21.1540241 10.3257739,21.6777126 C10.0751059,21.6537634 9.77920061,21.8011839 10.0575432,22.7974693 C10.2613772,23.5255241 10.4508418,23.7298903 10.5945368,23.7415988 C10.6748995,24.2679483 10.856381,24.8815792 11.2459542,25.3924948 C11.2129575,25.6048441 11.1474965,25.9018138 11.0229608,26.1083089 C11.0139133,26.1125665 9.70309547,26.74855 8.17513848,27.1248181 C8.02505702,27.1615401 7.8946671,27.2158249 7.77971109,27.2834148 C8.93565765,29.0034973 10.9000217,30.1354947 13.1283589,30.1354947 C15.356696,30.1354947 17.3205279,29.0034973 18.4770066,27.2834148 C18.3625828,27.2158249 18.2316607,27.1615401 18.0815792,27.1248181 C16.5488324,26.7474856 15.2768654,26.1716411 15.2768654,26.1716411 Z M46.4182361,37.6640491 C46.4182361,44.4773216 40.8950255,50 34.0822852,50 C27.2695449,50 21.7458021,44.4767894 21.7458021,37.6640491 C21.7458021,35.5746171 22.2662974,33.6065276 23.1827523,31.8821875 L19.9496144,29.7629521 C18.2774302,31.6416314 15.8415336,32.8252525 13.1288911,32.8252525 C8.08732486,32.8252525 4,28.7379277 4,23.6963615 C4,18.6547953 8.08732486,14.5674704 13.1288911,14.5674704 C15.1810688,14.5674704 17.0751819,15.2449658 18.5999457,16.3881395 L21.706419,12.9948083 C20.5243945,11.7207125 19.8011296,10.0155317 19.8011296,8.14057782 C19.8011296,4.19694797 22.9980775,1 26.9417074,1 C30.8853372,1 34.0822852,4.19694797 34.0822852,8.14057782 C34.0822852,12.0842077 30.8853372,15.2811556 26.9417074,15.2811556 C25.5217878,15.2811556 24.1992614,14.8649723 23.0874878,14.1502227 L19.9261975,17.6031606 C21.3759205,19.2189312 22.2577821,21.3546649 22.2577821,23.6963615 C22.2577821,25.3781253 21.8022157,26.9534485 21.0086999,28.3068426 L24.140719,30.3595525 C26.3866189,27.3084284 30.0024112,25.3280982 34.081753,25.3280982 C40.8950255,25.327566 46.4182361,30.8507766 46.4182361,37.6640491 Z M21.0225372,8.14057782 C21.0225372,11.4093733 23.6723797,14.059748 26.9417074,14.059748 C30.2105029,14.059748 32.8608776,11.4099055 32.8608776,8.14057782 C32.8608776,4.87125014 30.2105029,2.22140762 26.9417074,2.22140762 C23.6729119,2.22140762 21.0225372,4.87125014 21.0225372,8.14057782 Z M20.6968285,23.6963615 C20.6968285,19.5169654 17.3088194,16.1289562 13.1294233,16.1289562 C8.95002715,16.1289562 5.56201803,19.5169654 5.56201803,23.6963615 C5.56201803,27.8757576 8.95002715,31.2637667 13.1294233,31.2637667 C17.3088194,31.2637667 20.6968285,27.8757576 20.6968285,23.6963615 Z M44.3080482,37.6640491 C44.3080482,32.0163028 39.7294993,27.4377539 34.081753,27.4377539 C28.4340067,27.4377539 23.8554578,32.0163028 23.8554578,37.6640491 C23.8554578,43.3117954 28.4345389,47.8898121 34.0822852,47.8898121 C39.7300315,47.8898121 44.3080482,43.3117954 44.3080482,37.6640491 Z M36.9450092,41.051526 C36.7299989,40.7646682 36.6272836,40.2798306 36.5804497,39.9621049 C37.0482568,39.3303791 37.2850874,38.5895514 37.4016401,37.9290866 C37.5996199,38.0653307 37.9279896,37.9940154 38.2893559,36.7023569 C38.5831324,35.6528511 38.4043119,35.3010644 38.1509829,35.2127186 L38.1509829,35.2127186 C38.9753666,31.2195938 37.0918975,31.0854784 37.0918975,31.0854784 C37.0918975,31.0854784 36.8077007,30.5325187 36.0594222,30.1147388 C35.5580862,29.8145759 34.8598349,29.5809384 33.9385902,29.6618334 C33.6400239,29.6762029 33.3584881,29.7342131 33.0939828,29.8246877 L33.0939828,29.8246877 L33.0934506,29.8246877 C32.754969,29.9407082 32.4446943,30.1094167 32.1642229,30.3063321 C31.819887,30.5271967 31.4947105,30.797024 31.2078527,31.1057022 C30.7538829,31.5751059 30.3494081,32.181286 30.1737808,32.9386119 C30.007201,33.5820463 30.0119909,34.2771044 30.2610622,34.983871 C29.9225806,34.9514065 29.5228956,35.1504507 29.8991637,36.4958618 C30.174313,37.4788422 30.430303,37.7550559 30.6240252,37.7704898 C30.7325948,38.4815141 30.9774085,39.3096231 31.503758,39.9998914 C31.4595851,40.286217 31.3712393,40.6880308 31.2025307,40.9663734 C31.19029,40.9722277 29.4201803,41.8306723 27.3562941,42.3394591 C27.1540567,42.3894863 26.977365,42.4623982 26.8224938,42.5539372 C28.3839796,44.8770066 31.0359509,46.4054958 34.045031,46.4054958 C37.054111,46.4054958 39.7066145,44.8770066 41.2675682,42.5539372 C41.1126969,42.4629304 40.9360052,42.3894863 40.7337678,42.3394591 C38.662963,41.8290757 36.9450092,41.051526 36.9450092,41.051526 Z" id="Shape"></path>
        </g>
    </g>
</svg>