<?xml version="1.0" encoding="UTF-8"?>
<svg width="50px" height="50px" viewBox="0 0 50 50" version="1.1" xmlns="http://www.w3.org/2000/svg" xmlns:xlink="http://www.w3.org/1999/xlink">
    <!-- Generator: Sketch 47.1 (45422) - http://www.bohemiancoding.com/sketch -->
    <title>Artboard</title>
    <desc>Created with Sketch.</desc>
    <defs></defs>
    <g id="Symbols" stroke="none" stroke-width="1" fill="none" fill-rule="evenodd">
        <g id="Artboard" fill-rule="nonzero" fill="#2D2D2D">
            <g id="con-toolbox" transform="translate(5.000000, 9.000000)">
                <path d="M38.6083053,5.2892562 L0.897867565,5.2892562 C0.402244669,5.2892562 0,5.68418733 0,6.1707989 L0,30.8539945 C0,31.3414876 0.402244669,31.7355372 0.897867565,31.7355372 L38.6083053,31.7355372 C39.1039282,31.7355372 39.5061728,31.3414876 39.5061728,30.8539945 L39.5061728,6.1707989 C39.5061728,5.68418733 39.1039282,5.2892562 38.6083053,5.2892562 L38.6083053,5.2892562 Z M37.7104377,7.0523416 L37.7104377,17.630854 L32.3232323,17.630854 L32.3232323,14.9862259 C32.3232323,14.4996143 31.9209877,14.1046832 31.4253648,14.1046832 L27.8338945,14.1046832 C27.3382716,14.1046832 26.9360269,14.4996143 26.9360269,14.9862259 L26.9360269,17.630854 L12.5701459,17.630854 L12.5701459,14.9862259 C12.5701459,14.4996143 12.1679012,14.1046832 11.6722783,14.1046832 L8.08080808,14.1046832 C7.58518519,14.1046832 7.18294052,14.4996143 7.18294052,14.9862259 L7.18294052,17.6326171 L1.79573513,17.6326171 L1.79573513,7.0523416 L37.7104377,7.0523416 L37.7104377,7.0523416 Z M28.7317621,15.8677686 L30.5274972,15.8677686 L30.5274972,21.1587879 L28.7317621,21.1587879 L28.7317621,15.8677686 L28.7317621,15.8677686 Z M8.97867565,15.8677686 L10.7744108,15.8677686 L10.7744108,21.1587879 L8.97867565,21.1587879 L8.97867565,15.8677686 L8.97867565,15.8677686 Z M1.79573513,29.9724518 L1.79573513,19.3957025 L7.18294052,19.3957025 L7.18294052,22.0403306 C7.18294052,22.5278237 7.58518519,22.9218733 8.08080808,22.9218733 L11.6722783,22.9218733 C12.1679012,22.9218733 12.5701459,22.5278237 12.5701459,22.0403306 L12.5701459,19.3939394 L26.9360269,19.3939394 L26.9360269,22.0403306 C26.9360269,22.5278237 27.3382716,22.9218733 27.8338945,22.9218733 L31.4253648,22.9218733 C31.9209877,22.9218733 32.3232323,22.5278237 32.3232323,22.0403306 L32.3232323,19.3939394 L37.7104377,19.3939394 L37.7104377,29.9724518 L1.79573513,29.9724518 L1.79573513,29.9724518 Z" id="Shape"></path>
                <path d="M12.5701459,3.5261708 C12.5701459,4.01278237 12.9723906,4.4077135 13.4680135,4.4077135 C13.9636364,4.4077135 14.365881,4.01278237 14.365881,3.5261708 C14.365881,2.5538292 15.1712682,1.7630854 16.1616162,1.7630854 L23.3445567,1.7630854 C24.3349046,1.7630854 25.1402918,2.5538292 25.1402918,3.5261708 C25.1402918,4.01278237 25.5425365,4.4077135 26.0381594,4.4077135 C26.5337823,4.4077135 26.9360269,4.01278237 26.9360269,3.5261708 C26.9360269,1.5814876 25.3252525,0 23.3445567,0 L16.1616162,0 C14.1809203,0 12.5701459,1.5814876 12.5701459,3.5261708 L12.5701459,3.5261708 Z" id="Shape"></path>
            </g>
        </g>
    </g>
</svg>