<?xml version="1.0" encoding="UTF-8"?>
<svg width="30px" height="30px" viewBox="0 0 30 30" version="1.1" xmlns="http://www.w3.org/2000/svg" xmlns:xlink="http://www.w3.org/1999/xlink">
    <!-- Generator: Sketch 46.2 (44496) - http://www.bohemiancoding.com/sketch -->
    <title>03</title>
    <desc>Created with Sketch.</desc>
    <defs></defs>
    <g id="ICO" stroke="none" stroke-width="1" fill="none" fill-rule="evenodd">
        <g id="03" stroke="#333333" stroke-width="0.966666667" fill="#000000" fill-rule="nonzero">
            <g id="noun_1167345_cc" transform="translate(0.500000, 0.500000)">
                <path d="M8.6546875,12.053125 C8.3375,11.690625 7.7484375,11.6453125 7.3859375,11.9625 C7.0234375,12.2796875 6.978125,12.86875 7.2953125,13.23125 C7.2953125,13.23125 7.340625,13.2765625 7.340625,13.2765625 L12.8234375,19.2125 C13.0046875,19.39375 13.23125,19.484375 13.4578125,19.484375 L13.4578125,19.484375 C13.684375,19.484375 13.9109375,19.39375 14.0921875,19.2125 L27.9125,5.3921875 C28.275,5.0296875 28.275,4.4859375 27.9125,4.1234375 C27.55,3.7609375 27.00625,3.7609375 26.64375,4.1234375 L13.503125,17.2640625 L8.6546875,12.053125 Z" id="Shape"></path>
                <path d="M14.5,0.271875 C6.615625,0.271875 0.271875,6.6609375 0.271875,14.5 C0.271875,22.3390625 6.615625,28.728125 14.5,28.728125 C22.384375,28.728125 28.728125,22.384375 28.728125,14.5 C28.728125,14.0015625 28.3203125,13.59375 27.821875,13.59375 C27.3234375,13.59375 26.915625,14.0015625 26.915625,14.5 C26.915625,21.3421875 21.3421875,26.915625 14.5,26.915625 C7.6578125,26.915625 2.084375,21.3421875 2.084375,14.5 C2.084375,7.6578125 7.6578125,2.084375 14.5,2.084375 C14.9984375,2.084375 15.40625,1.6765625 15.40625,1.178125 C15.40625,0.6796875 14.9984375,0.271875 14.5,0.271875 Z" id="Shape"></path>
            </g>
        </g>
    </g>
</svg>