<?xml version="1.0" encoding="UTF-8"?>
<!DOCTYPE svg PUBLIC "-//W3C//DTD SVG 1.1//EN" "http://www.w3.org/Graphics/SVG/1.1/DTD/svg11.dtd">
<!-- Creator: CorelDRAW X7 -->
<svg xmlns="http://www.w3.org/2000/svg" xml:space="preserve" width="50px" height="50px" version="1.1" style="shape-rendering:geometricPrecision; text-rendering:geometricPrecision; image-rendering:optimizeQuality; fill-rule:evenodd; clip-rule:evenodd;fill-opacity: 0.2;"
viewBox="0 0 5000000 5000236"
 xmlns:xlink="http://www.w3.org/1999/xlink">
 <defs>
  <style type="text/css">
   <![CDATA[
    .fil0 {fill:none}
    .fil1 {fill:647784}
   ]]>
  </style>
 </defs>
 <g id="Layer_x0020_1">
  <metadata id="CorelCorpID_0Corel-Layer"/>
  <rect class="fil0" y="236" width="5000000" height="5000000"/>
  <path id="Shape" class="fil1" d="M231385 1743598l639233 2293773 0 236c0,0 0,0 118,0l245087 879477c8149,29528 27874,54332 54450,68979 16890,9331 35907,14173 54923,14173 10867,0 21851,-1653 32481,-4842l2894147 -864949c59411,-17717 93546,-79609 77010,-139374l-145635 -522418 685416 -2459487c16536,-59648 -17481,-121540 -76892,-139375l-2894265 -864948c-29056,-8741 -60592,-5315 -87522,9331 -26576,14764 -46301,39686 -54333,68978l-339932 1219763 -1007394 301073c-59411,17953 -93428,79845 -76892,139610l0 0zm1018615 756638c187919,0 340877,-152957 340877,-340877 0,-188037 -152958,-340995 -340877,-340995 -188037,0 -340995,152958 -340995,340995 0,187920 152958,340877 340995,340877l0 0zm0 -454502c62719,0 113626,50907 113626,113625 0,62719 -50907,113626 -113626,113626 -62837,0 -113626,-50907 -113626,-113626 0,-62718 50789,-113625 113626,-113625l0 0zm-52324 1578120c16772,8741 34725,12757 52206,12757 41104,0 80790,-22206 100987,-61302l401706 -775890 338751 193707 118 118 118 0 216385 123547c54450,31182 123901,12166 154965,-42167 31182,-54450 12166,-123901 -42285,-155083l-123429 -70632 256190 -480960 775890 443518c54569,31300 123902,12165 155084,-42167 31064,-54569 12165,-123902 -42285,-155084l-877469 -501748c-26812,-15237 -58466,-19134 -87876,-10512 -29529,8504 -54333,28584 -68743,55632l-308277 578286 -337216 -192644c-26693,-15355 -58938,-19253 -88585,-10394 -29647,8740 -54451,29174 -68624,56694l-456274 881130c-28820,55750 -6969,124374 48663,153194l0 0zm105948 1120784l-184730 -662620 2676462 -799985 184730 662855 -2676462 799750 0 0zm539781 -4488803l2676462 799868 -554427 1989865 -620807 -2227865c-8150,-29410 -27875,-54333 -54569,-68979 -26575,-14764 -58230,-18189 -87404,-9331l-1629500 487102 270245 -970660 0 0zm1313190 734314l577578 2073018 -2676344 799986 -577696 -2073136 2676462 -799868 0 0z"/>
 </g>
</svg>
