<?xml version="1.0" encoding="UTF-8"?>
<svg width="50px" height="50px" viewBox="0 0 50 50" version="1.1" xmlns="http://www.w3.org/2000/svg" xmlns:xlink="http://www.w3.org/1999/xlink">
    <!-- Generator: Sketch 50.2 (55047) - http://www.bohemiancoding.com/sketch -->
    <title>Artboard</title>
    <desc>Created with Sketch.</desc>
    <defs></defs>
    <g id="Artboard" stroke="none" stroke-width="1" fill="none" fill-rule="evenodd">
        <path d="M22.4374486,8.95668811 C21.4722181,8.03197724 21.4722181,6.57345308 22.4374486,5.64874222 C23.4002796,4.78375259 24.8868436,4.78375259 25.8496746,5.64874222 L44.2760773,23.3016197 C45.2413076,24.2263306 45.2413076,25.6848548 44.2760773,26.6095657 L25.7977693,44.3121696 C25.3310507,44.7592957 24.734328,45 24.1176089,45 C23.5008898,45 22.9041672,44.7592957 22.4374486,44.3121696 C21.4722181,43.3874587 21.4722181,41.9289345 22.4374486,41.0042237 L36.7448906,27.2973961 L7.40408323,27.2973961 C6.08416242,27.2973961 5,26.2587459 5,24.9804559 C5,23.7021659 6.08416242,22.6635157 7.40408323,22.6635157 L36.7448906,22.6635157 L22.4374486,8.95668811 Z" id="Shape" fill="#E8EDF1" fill-rule="nonzero" transform="translate(25.000000, 25.000000) scale(-1, 1) translate(-25.000000, -25.000000) "></path>
    </g>
</svg>