<?xml version="1.0" encoding="UTF-8"?>
<svg width="50px" height="50px" viewBox="0 0 50 50" version="1.1" xmlns="http://www.w3.org/2000/svg" xmlns:xlink="http://www.w3.org/1999/xlink">
    <!-- Generator: Sketch 47.1 (45422) - http://www.bohemiancoding.com/sketch -->
    <title>Arrow</title>
    <desc>Created with Sketch.</desc>
    <defs></defs>
    <g id="Icons" stroke="none" stroke-width="1" fill="none" fill-rule="evenodd">
        <g id="Arrow" stroke-width="0.5" stroke="#000000" fill-rule="nonzero" fill="#000000">
            <g id="Shape" transform="translate(10.500000, 9.000000)">
                <path d="M13.2189974,0.426540284 C12.585752,1.03317536 12.585752,1.98104265 13.2189974,2.58767773 L24.5778364,13.4691943 L1.58311346,13.4691943 C0.712401055,13.4691943 0,14.1516588 0,14.985782 C0,15.8199052 0.712401055,16.5023697 1.58311346,16.5023697 L24.5778364,16.5023697 L13.2189974,27.3838863 C12.585752,27.9905213 12.585752,28.9383886 13.2189974,29.5450237 C13.5356201,29.8483412 13.9313984,30 14.3271768,30 C14.7229551,30 15.1187335,29.8483412 15.4353562,29.5450237 L29.525066,16.0473934 C30.1583113,15.4407583 30.1583113,14.492891 29.525066,13.8862559 L15.474934,0.426540284 C14.8416887,-0.142180095 13.8522427,-0.142180095 13.2189974,0.426540284 Z"></path>
            </g>
        </g>
    </g>
</svg>