<?xml version="1.0" encoding="UTF-8"?>
<svg width="50px" height="50px" viewBox="0 0 50 50" version="1.1" xmlns="http://www.w3.org/2000/svg" xmlns:xlink="http://www.w3.org/1999/xlink">
    <!-- Generator: Sketch 48.2 (47327) - http://www.bohemiancoding.com/sketch -->
    <title>delete</title>
    <desc>Created with Sketch.</desc>
    <defs></defs>
    <g id="Icons" stroke="none" stroke-width="1" fill="none" fill-rule="evenodd">
        <g id="delete" fill="#ffffff" fill-rule="nonzero">
            <g id="ios-trash" transform="translate(8.000000, 3.000000)">
                <rect id="Rectangle-path" transform="translate(10.062500, 25.571429) rotate(-2.200616) translate(-10.062500, -25.571429) " x="9" y="13" width="2.125" height="25.1428571"></rect>
                <rect id="Rectangle-path" transform="translate(23.750000, 25.047619) rotate(-87.787933) translate(-23.750000, -25.047619) " x="11" y="24" width="25.5" height="2.0952381"></rect>
                <rect id="Rectangle-path" x="16" y="13" width="2.125" height="25.1428571"></rect>
                <path d="M5.007,40.116 C5.282,42.436 6.887,43.997 9,44 L25.001,44 C27.059,43.998 28.737,42.362 28.996,40.089 L31.913,8 L34,8 L34,6 L24,6 L24,4 C24,1.794 22.206,0 20,0 L14,0 C11.794,0 10,1.794 10,4 L10,6 L0,6 L0,8 L2.087,8 L5.007,40.116 Z M27.007,39.885 C26.891,40.903 26.213,41.999 25,42 L9.001,42 C7.706,41.998 7.114,40.904 6.996,39.907 L4.095,8 L29.905,8 L27.007,39.885 Z M12,4 C12,2.897 12.897,2 14,2 L20,2 C21.103,2 22,2.897 22,4 L22,6 L12,6 L12,4 Z" id="Shape"></path>
            </g>
        </g>
    </g>
</svg>