<?xml version="1.0" encoding="UTF-8"?>
<svg width="50px" height="50px" viewBox="0 0 50 50" version="1.1" xmlns="http://www.w3.org/2000/svg" xmlns:xlink="http://www.w3.org/1999/xlink">
    <!-- Generator: Sketch 48.1 (47250) - http://www.bohemiancoding.com/sketch -->
    <title>Shortlist</title>
    <desc>Created with Sketch.</desc>
    <defs></defs>
    <g id="Icons" stroke="none" stroke-width="1" fill="none" fill-rule="evenodd">
        <g id="Shortlist" fill="#FFFFFF" fill-rule="nonzero">
            <g id="ios-top-charts" transform="translate(1.500000, 1.500000)">
                <path d="M16.9936252,16.1101707 L21.9581184,1.12813116 C22.1213954,0.63538734 22.50503,0.248907904 22.9936812,0.0848890092 C23.8513803,-0.203003179 24.7780169,0.265074159 25.0633819,1.13036901 L30.0035608,16.1101707 L45.3631891,16.1101707 C45.8841767,16.1101707 46.3740421,16.3604018 46.6824069,16.7840482 C47.217427,17.5190844 47.0605125,18.5525094 46.3319286,19.0922676 L33.7427355,28.4187429 L38.8366015,43.8262512 C39.0045804,44.33434 38.9178428,44.8930633 38.6039302,45.3250112 C38.0694576,46.0604526 37.0452224,46.219533 36.3162368,45.6803271 L23.4999453,36.2005522 L10.6836539,45.6803271 C10.2554977,45.9970197 9.70167903,46.0845255 9.19805028,45.9150589 C8.34056388,45.6265225 7.87728555,44.6913314 8.16328914,43.8262512 L13.2571552,28.4187429 L0.667962041,19.0922676 C0.248034437,18.7811718 0,18.2869683 0,17.7613668 C0,16.8494364 0.732776249,16.1101707 1.63670156,16.1101707 L16.9936252,16.1101707 Z M23.5091484,3.3913576 L18.5650777,18.3117655 L3.30139326,18.3117655 L15.8303932,27.5936479 L10.7758543,42.882203 L23.4999453,33.4706255 L36.2240364,42.882203 L31.1694974,27.5936479 L43.6984974,18.3117655 L28.4297399,18.3117655 L23.5091484,3.3913576 Z" id="Shape"></path>
            </g>
        </g>
    </g>
</svg>