<?xml version="1.0" encoding="UTF-8"?>
<svg width="50px" height="50px" viewBox="0 0 50 50" version="1.1" xmlns="http://www.w3.org/2000/svg" xmlns:xlink="http://www.w3.org/1999/xlink">
    <!-- Generator: Sketch 48.2 (47327) - http://www.bohemiancoding.com/sketch -->
    <title>Artboard</title>
    <desc>Created with Sketch.</desc>
    <defs></defs>
    <g id="Candidate---RWD" stroke="none" stroke-width="1" fill="none" fill-rule="evenodd">
        <g id="Artboard" fill="#000000">
            <g id="Sort">
                <g id="noun_1300852_cc" transform="translate(15.000000, 3.000000)">
                    <path d="M9.36842105,4.5047619 C9.36842105,4.19047619 9.15789474,4.19047619 8.94736842,4.2952381 L2.73684211,10.3714286 C1.78947368,11.3142857 0.210526316,9.84761905 1.26315789,8.9047619 L9.47368421,0.838095238 C10,0.314285714 10.8421053,0.314285714 11.3684211,0.838095238 L19.5789474,8.9047619 C20.5263158,9.84761905 19.0526316,11.3142857 18.1052632,10.3714286 L11.8947368,4.2952381 C11.6842105,4.08571429 11.4736842,4.19047619 11.4736842,4.5047619 L11.4736842,39.4952381 C11.4736842,39.8095238 11.6842105,39.9142857 11.8947368,39.7047619 L18.1052632,33.6285714 C19.0526316,32.6857143 20.6315789,34.152381 19.5789474,35.0952381 L11.3684211,43.1619048 C10.8421053,43.6857143 10,43.6857143 9.47368421,43.1619048 L1.26315789,35.0952381 C0.315789474,34.152381 1.78947368,32.6857143 2.73684211,33.6285714 L8.94736842,39.7047619 C9.15789474,39.9142857 9.36842105,39.8095238 9.36842105,39.4952381 L9.36842105,4.5047619 Z" id="Shape" fill-rule="nonzero"></path>
                </g>
            </g>
        </g>
    </g>
</svg>