<?xml version="1.0" encoding="UTF-8"?>
<svg width="50px" height="50px" viewBox="0 0 50 50" version="1.1" xmlns="http://www.w3.org/2000/svg" xmlns:xlink="http://www.w3.org/1999/xlink">
    <!-- Generator: Sketch 48.2 (47327) - http://www.bohemiancoding.com/sketch -->
    <title>Status_2nd interview</title>
    <desc>Created with Sketch.</desc>
    <defs></defs>
    <g id="Icons" stroke="none" stroke-width="1" fill="none" fill-rule="evenodd">
        <g id="Status_2nd-interview" fill="#000000" fill-rule="nonzero">
            <g id="use-switch" transform="translate(5.000000, 7.000000)">
                <path d="M11.8181818,14.5945946 C11.8181818,11.6844324 10.3445455,9.72972973 8.15090909,9.72972973 C5.99454545,9.72972973 4.54545455,11.6844324 4.54545455,14.5945946 C4.54545455,17.0124324 5.78363636,19.4594595 8.15090909,19.4594595 C10.5581818,19.4594595 11.8181818,17.0124324 11.8181818,14.5945946 Z" id="Shape"></path>
                <path d="M16.3636364,23.3513514 C16.3636364,23.3104865 16.3609091,23.2705946 16.3563636,23.2307027 C15.9845455,20.0442162 14.89,19.4847568 12.2918182,18.8922162 C11.8018182,18.7774054 8.59140305,17.8469774 8.4868576,18.3723828 C8.38231214,18.8987612 7.36230507,18.8987612 7.25775961,18.3723828 C7.15321416,17.8460044 4.50090909,18.7764324 4.01181818,18.8902703 C1.45909091,19.4730811 0.382727273,20.0286486 0.00818181818,23.2297297 C0.00272727273,23.2705946 0,23.3104865 0,23.3513514 C0,25.1211892 2.36727273,25.2972973 8.18181818,25.2972973 C13.9963636,25.2972973 16.3636364,25.1211892 16.3636364,23.3513514 Z" id="Shape"></path>
                <path d="M31.7872727,19.4594595 C34.1945455,19.4594595 35.4545455,17.0124324 35.4545455,14.5945946 C35.4545455,11.6844324 33.9809091,9.72972973 31.7872727,9.72972973 C29.6309091,9.72972973 28.1818182,11.6844324 28.1818182,14.5945946 C28.1818182,17.0124324 29.42,19.4594595 31.7872727,19.4594595 Z" id="Shape"></path>
                <path d="M33.1111991,18.7385809 C33.0066537,19.2649593 30.8561991,18.7472322 30.7516536,18.2208538 C30.6480172,17.6944755 28.1381818,18.7764324 27.6481818,18.8902703 C25.0954545,19.4730811 24.0190909,20.0286486 23.6445455,23.2297297 C23.6390909,23.2705946 23.6363636,23.3104865 23.6363636,23.3513514 C23.6363636,25.1211892 26.0036364,25.2972973 31.8181818,25.2972973 C37.6327273,25.2972973 40,25.1211892 40,23.3513514 C40,23.3104865 39.9972727,23.2705946 39.9927273,23.2307027 C39.6209091,20.0442162 38.5263636,19.4847568 35.9281818,18.8922162 C35.4354545,18.7774054 33.2157446,18.2131755 33.1111991,18.7385809 Z" id="Shape"></path>
                <path d="M7.32636364,7.09297297 C7.33909091,7.13578378 7.34636364,7.17956757 7.36363636,7.21945946 C7.39727273,7.29827027 7.44636364,7.36735135 7.5,7.43545946 C7.52090909,7.46172973 7.53818182,7.49091892 7.56181818,7.51427027 C7.58272727,7.53567568 7.59363636,7.56389189 7.61636364,7.58335135 C7.67,7.62908108 7.73181818,7.64854054 7.79090909,7.6787027 C7.81,7.68843243 7.82727273,7.70108108 7.84727273,7.70983784 C7.95090909,7.75459459 8.05636364,7.77697297 8.16545455,7.77891892 C8.17090909,7.77891892 8.17636364,7.78281081 8.18181818,7.78281081 L8.20727273,7.78281081 C8.24,7.78183784 8.27090909,7.78767568 8.30363636,7.78281081 L11.8181818,7.78281081 C12.3209091,7.78281081 12.7272727,7.34691892 12.7272727,6.80983784 C12.7272727,6.27275676 12.3209091,5.83686486 11.8181818,5.83686486 L10.3427273,5.83686486 C12.8781818,3.44432432 16.4590909,1.95762162 20,1.95762162 C24.2781818,1.95762162 28.6381818,4.10497297 31.1063636,7.42864865 C31.2863636,7.66994595 31.5509091,7.79545946 31.8190909,7.79545946 C32.0172727,7.79545946 32.2172727,7.72637838 32.3836364,7.58432432 C32.7772727,7.24962162 32.8418182,6.63762162 32.53,6.2172973 C29.7290909,2.448 24.8109091,0.0126486486 20,0.0126486486 C16.0145455,0.0126486486 11.9590909,1.68810811 9.09090909,4.40562162 L9.09090909,2.91891892 C9.09090909,2.38183784 8.68454545,1.94594595 8.18181818,1.94594595 C7.67909091,1.94594595 7.27272727,2.38183784 7.27272727,2.91891892 L7.27272727,6.81081081 C7.27272727,6.83124324 7.28272727,6.84875676 7.28363636,6.86821622 C7.28727273,6.94605405 7.30545455,7.01902703 7.32636364,7.09297297 Z" id="Shape"></path>
                <path d="M8.89363636,27.6227027 C8.57909091,27.2023784 8.00818182,27.1313514 7.61636364,27.467027 C7.22272727,27.8017297 7.15818182,28.4137297 7.47,28.8340541 C10.2709091,32.6033514 15.1890909,35.0387027 20,35.0387027 C23.9854545,35.0387027 28.0409091,33.3632432 30.9090909,30.6457297 L30.9090909,32.1081081 C30.9090909,32.6451892 31.3154545,33.0810811 31.8181818,33.0810811 C32.3209091,33.0810811 32.7272727,32.6451892 32.7272727,32.1081081 L32.7272727,28.2162162 C32.7272727,28.1977297 32.7181818,28.1831351 32.7172727,28.1656216 C32.7136364,28.1091892 32.6990909,28.0576216 32.6863636,28.0031351 C32.67,27.9272432 32.6545455,27.8532973 32.6227273,27.7861622 C32.6109091,27.7608649 32.5927273,27.7404324 32.5781818,27.7161081 C32.5263636,27.6265946 32.4681818,27.5477838 32.3927273,27.4806486 C32.3890909,27.4767568 32.3872727,27.4718919 32.3827273,27.468 C32.3736364,27.4602162 32.3618182,27.4582703 32.3518182,27.4514595 C32.2681818,27.3852973 32.1781818,27.3337297 32.0763636,27.3006486 C32.0581818,27.2948108 32.04,27.2938378 32.0218182,27.288973 C31.9554545,27.2704865 31.8909091,27.2432432 31.8181818,27.2432432 L28.1818182,27.2432432 C27.6790909,27.2432432 27.2727273,27.6791351 27.2727273,28.2162162 C27.2727273,28.7532973 27.6790909,29.1891892 28.1818182,29.1891892 L29.6845455,29.1891892 C27.1481818,31.5963243 23.5536364,33.0937297 20,33.0937297 C15.7218182,33.0937297 11.3618182,30.9463784 8.89363636,27.6227027 Z" id="Shape"></path>
            </g>
        </g>
    </g>
</svg>