<?xml version="1.0" encoding="UTF-8"?>
<svg width="50px" height="50px" viewBox="0 0 50 50" version="1.1" xmlns="http://www.w3.org/2000/svg" xmlns:xlink="http://www.w3.org/1999/xlink">
    <!-- Generator: Sketch 48.2 (47327) - http://www.bohemiancoding.com/sketch -->
    <title>Tracker</title>
    <desc>Created with Sketch.</desc>
    <defs></defs>
    <g id="Icons" stroke="none" stroke-width="1" fill="none" fill-rule="evenodd">
        <g id="Tracker" fill="#FFFFFF" fill-rule="nonzero">
            <g id="noun_618738_cc" transform="translate(2.000000, 1.000000)">
                <g id="Group" transform="translate(0.000000, 0.332611)">
                    <path d="M23.3857639,0.172573867 C22.872549,0.228888652 22.444451,0.71637997 22.4555556,1.23183313 L22.4555556,5.43627757 C13.4923245,5.95761669 6.29916299,13.1405668 5.77708333,22.0910924 L1.56666667,22.0910924 L1.46875,22.0910924 C0.921805412,22.116645 0.44762612,22.6367445 0.473263889,23.1829442 C0.498901867,23.7290918 1.01973231,24.2027273 1.56666667,24.1770183 L5.77708333,24.1770183 C6.29916299,33.1275392 13.4923245,40.310494 22.4555556,40.8318331 L22.4555556,45.0362776 C22.4477536,45.5872749 22.9481516,46.0955368 23.5,46.0955368 C24.0518484,46.0955368 24.552248,45.5872749 24.5444444,45.0362776 L24.5444444,40.8318331 C33.5076755,40.310494 40.700837,33.1275392 41.2229167,24.1770183 L45.4333333,24.1770183 C45.9851264,24.1848405 46.4940972,23.6851048 46.4940972,23.1340553 C46.4940972,22.5830059 45.9851264,22.0833223 45.4333333,22.0910924 L41.2229167,22.0910924 C40.700837,13.1405668 33.5076755,5.95761669 24.5444444,5.43627757 L24.5444444,1.23183313 C24.5572076,0.640186311 23.9748253,0.107774578 23.3857639,0.172573867 Z M23.5,7.4896109 C32.1648323,7.4896109 39.1666667,14.4815042 39.1666667,23.1340553 C39.1666667,31.7865804 32.1648323,38.7784998 23.5,38.7784998 C14.8351677,38.7784998 7.83333333,31.7865804 7.83333333,23.1340553 C7.83333333,14.4815042 14.8351677,7.4896109 23.5,7.4896109 Z M23.5,18.440722 C20.9166325,18.440722 18.8,20.5543438 18.8,23.1340553 C18.8,25.7137721 20.9166325,27.8273887 23.5,27.8273887 C26.083367,27.8273887 28.2,25.7137721 28.2,23.1340553 C28.2,20.5543438 26.083367,18.440722 23.5,18.440722 Z M23.5,20.5266479 C24.9544474,20.5266479 26.1111111,21.6816616 26.1111111,23.1340553 C26.1111111,24.5864334 24.9544474,25.7414628 23.5,25.7414628 C22.0455521,25.7414628 20.8888889,24.5864334 20.8888889,23.1340553 C20.8888889,21.6816616 22.0455521,20.5266479 23.5,20.5266479 Z" id="Shape"></path>
                </g>
            </g>
        </g>
    </g>
</svg>