<?xml version="1.0" encoding="UTF-8"?>
<svg width="50px" height="50px" viewBox="0 0 50 50" version="1.1" xmlns="http://www.w3.org/2000/svg" xmlns:xlink="http://www.w3.org/1999/xlink">
    <!-- Generator: Sketch 49.3 (51167) - http://www.bohemiancoding.com/sketch -->
    <title>Twitter</title>
    <desc>Created with Sketch.</desc>
    <defs></defs>
    <g id="Twitter" stroke="none" stroke-width="1" fill="none" fill-rule="evenodd">
        <path d="M3.75,0 L46.25,0 C48.3210678,-3.80448985e-16 50,1.67893219 50,3.75 L50,46.25 C50,48.3210678 48.3210678,50 46.25,50 L3.75,50 C1.67893219,50 2.53632657e-16,48.3210678 0,46.25 L0,3.75 C-2.53632657e-16,1.67893219 1.67893219,3.80448985e-16 3.75,0 Z" id="Rectangle-Copy-2" fill-rule="nonzero"></path>
        <path d="M34.4488755,17.295746 C33.6563196,17.7584682 32.7782568,18.0959583 31.8427104,18.2756699 C31.0932672,17.4910233 30.0283826,17 28.847812,17 C26.5808005,17 24.7434792,18.8091448 24.7434792,21.0406828 C24.7434792,21.355532 24.7808436,21.6654285 24.851261,21.960467 C21.4403248,21.7913682 18.4159661,20.1838684 16.3925415,17.739365 C16.0397356,18.3379323 15.8385428,19.031308 15.8385428,19.769258 C15.8385428,21.1715751 16.5606812,22.4083311 17.6629302,23.1328381 C16.99109,23.1123198 16.3573328,22.929778 15.8033341,22.6276643 L15.8033341,22.6793137 C15.8033341,24.6363315 17.2181505,26.2678871 19.0949917,26.640046 C18.7508084,26.7306094 18.3879428,26.7794287 18.0157362,26.7794287 C17.7505928,26.7794287 17.4933535,26.7560803 17.242581,26.708676 C17.7649637,28.3147608 19.2803765,29.4807641 21.074585,29.5126028 C19.6705468,30.5951181 17.9022059,31.2425046 15.9793777,31.2425046 C15.6474096,31.2425046 15.3197528,31.2234014 15,31.1859025 C16.8150463,32.3306801 18.9721204,33 21.2901487,33 C28.8384709,33 32.9657972,26.8466437 32.9657972,21.5062351 C32.9657972,21.3328911 32.9600489,21.1574246 32.9528634,20.9847882 C33.7554789,20.415937 34.4503126,19.7048731 35,18.8926329 C34.2656463,19.2145574 33.4730905,19.4317679 32.6424517,19.5294066 C33.4910541,19.031308 34.1413379,18.2395861 34.4488755,17.295746 Z" id="Shape" fill="#FFFFFF" fill-rule="nonzero"></path>
    </g>
</svg>