<?xml version="1.0" encoding="UTF-8"?>
<svg width="50px" height="50px" viewBox="0 0 50 50" version="1.1" xmlns="http://www.w3.org/2000/svg" xmlns:xlink="http://www.w3.org/1999/xlink">
    <!-- Generator: Sketch 49.2 (51160) - http://www.bohemiancoding.com/sketch -->
    <title>name</title>
    <desc>Created with Sketch.</desc>
    <defs></defs>
    <g id="name" stroke="none" stroke-width="1" fill="none" fill-rule="evenodd">
        <path d="M25.5,24.5647482 C28.8927039,24.5647482 31.6201717,20.942446 31.6201717,16.5 C31.6201717,12.3992806 29.1587983,9.5971223 25.5,9.5971223 C21.8412017,9.5971223 19.3798283,12.3992806 19.3798283,16.5 C19.3798283,20.942446 22.1072961,24.5647482 25.5,24.5647482 Z M25.5,7 C30.6223176,7 34.1480687,10.8956835 34.1480687,16.5 C34.1480687,22.3776978 30.2896996,27.1618705 25.5,27.1618705 C20.7103004,27.1618705 16.8519313,22.3776978 16.8519313,16.5 C16.8519313,10.8956835 20.3776824,7 25.5,7 Z M39.7360515,45 C39.0042918,45 38.472103,44.4532374 38.472103,43.7014388 C38.472103,42.2661871 38.4055794,41.0359712 38.4055794,40.8309353 C37.6072961,33.1079137 29.0922747,32.2194245 25.5,32.2194245 C21.2424893,32.2194245 13.9248927,33.2446043 12.7274678,40.0791367 C12.5944206,40.6942446 12.527897,42.1294964 12.527897,42.881295 C12.527897,43.5647482 11.9957082,44.1798561 11.2639485,44.1798561 C10.5987124,44.1798561 10,43.6330935 10,42.881295 C10,42.1978417 10.0665236,40.4892086 10.1995708,39.6690647 C11.3304721,33.3129496 16.8519313,29.6906475 25.5,29.6906475 C34.4141631,29.6906475 40.2017167,33.7913669 40.9334764,40.6258993 C41,40.9676259 41,42.7446043 41,43.7697842 C41,44.3848921 40.4678112,45 39.7360515,45 Z" id="Shape" fill="#ffffff" fill-rule="nonzero"></path>
    </g>
</svg>