<?xml version="1.0" encoding="UTF-8"?>
<svg width="50px" height="50px" viewBox="0 0 50 50" version="1.1" xmlns="http://www.w3.org/2000/svg" xmlns:xlink="http://www.w3.org/1999/xlink">
    <!-- Generator: Sketch 48.2 (47327) - http://www.bohemiancoding.com/sketch -->
    <title>2</title>
    <desc>Created with Sketch.</desc>
    <defs></defs>
    <g id="Icons" stroke="none" stroke-width="1" fill="none" fill-rule="evenodd">
        <g id="2" fill="#1cc7d0" fill-rule="nonzero">
            <g id="Screen" transform="translate(7.000000, 5.000000)">
                <g id="Group">
                    <path d="M29.6237053,8.66419385 C29.6672833,10.965094 28.8210301,13.1839223 27.286261,14.7967275 C25.7532619,16.4262881 23.6722562,17.3344154 21.5180884,17.3184385 C19.3606389,17.3381874 17.28744,16.4274355 15.7775353,14.8018126 C14.2317798,13.1900831 13.3749111,10.9725048 13.4072464,8.69043311 C13.3749111,6.38602653 14.2317798,4.16844822 15.7683454,2.5664791 C16.1600955,2.14267102 16.5897583,1.76066862 17.0598756,1.41973524 C18.3855948,0.488294303 19.9451842,0.00725988257 21.5119844,0.0401021412 C22.9031437,0.0253899583 24.2752183,0.385530733 25.5208703,1.09895749 C26.1721429,1.50127619 26.7697986,1.9949434 27.297839,2.56672885 C27.3169402,2.58741247 27.3346059,2.60871685 27.350873,2.63054841 C28.8457615,4.23997075 29.6666416,6.42687726 29.6237053,8.66419385 Z" id="Shape"></path>
                    <path d="M6.21987986,5.02072987 C7.78472168,5.01262797 9.286822,5.67529081 10.3884786,6.85950286 C11.4896498,8.04319317 12.0983842,9.64868469 12.0780692,11.2923132 C12.1056479,12.9485019 11.4905461,14.5434959 10.3878973,15.6897363 C9.28750157,16.8806287 7.7847599,17.5513199 6.21632799,17.5513199 C4.64789607,17.5513199 3.1451544,16.8806287 2.06438035,15.7101602 C0.920656779,14.5652077 0.29744648,12.9491878 0.355055571,11.3359226 C0.290771014,9.65181842 0.908683489,8.01959944 2.05130247,6.85463583 C3.15024351,5.65757997 4.66273729,4.99426099 6.21987986,5.02072987 Z" id="Shape"></path>
                    <path d="M28.1599181,32.2070153 C28.1684505,33.0189054 28.0764216,33.8284487 27.8815808,34.632868 C27.1431824,37.3948806 25.1150327,38.790793 21.9557219,38.790793 L6.92715316,38.7907711 C2.86490035,38.7577385 0.707969755,36.4370978 0.738790142,32.1185231 L0.738810193,25.3814748 C0.707953265,21.034375 2.87009573,18.7147309 6.9430303,18.7147309 L21.9662032,18.7147309 C26.025841,18.7147309 28.1704434,21.0188841 28.1704434,25.3571988 L28.1704434,31.7087459 C28.1704434,31.7529019 28.1668478,31.7961657 28.1599507,31.8382247 L28.1599181,32.2070153 Z" id="Shape"></path>
                    <path d="M28.158219,26.0228502 L34.6073106,21.4738365 L34.6073106,36.6670503 C34.6073106,36.9351418 34.739854,37.1703414 34.9391143,37.3027085 L28.3916981,33.1244205 C28.0570307,32.9129178 27.959054,31.7009525 28.1581153,31.3453685 C28.2765507,31.1338069 28.1621616,30.4283877 28.158219,26.0228502 Z M28.1795122,25.4540311 C28.1892423,25.4055995 28.1971276,25.3572143 28.2019352,25.310147 C28.1931797,25.3577802 28.185692,25.405742 28.1795122,25.4540311 Z M36.0174309,36.6545819 C36.0185976,36.7250369 36.0104184,36.7961223 35.9923782,36.8656845 C35.9758919,36.9295443 35.9516504,36.9899957 35.9207967,37.0458242 C35.9199183,37.0471794 35.9191314,37.0485954 35.9183396,37.0500099 C35.8579356,37.1579097 35.7760211,37.2438228 35.6818617,37.3052479 C35.6799819,37.3065261 35.6705547,37.3125508 35.6609874,37.3183445 C35.5741912,37.3706796 35.4779208,37.4028065 35.3790449,37.4128709 C35.3570971,37.4150583 35.3348569,37.4161767 35.3123708,37.4161767 C35.1809942,37.4161767 35.0580101,37.3779986 34.95271,37.3115147 C34.9524981,37.3112457 34.9522181,37.3110691 34.9519383,37.3108922 L34.9391143,37.3027085 Z" id="Combined-Shape"></path>
                </g>
            </g>
        </g>
    </g>
</svg>