<?xml version="1.0" encoding="UTF-8"?>
<svg width="100px" height="100px" viewBox="0 0 100 100" version="1.1" xmlns="http://www.w3.org/2000/svg" xmlns:xlink="http://www.w3.org/1999/xlink">
    <!-- Generator: Sketch 49.2 (51160) - http://www.bohemiancoding.com/sketch -->
    <title>Video</title>
    <desc>Created with Sketch.</desc>
    <defs></defs>
    <g id="Video" stroke="none" stroke-width="1" fill="none" fill-rule="evenodd">
        <g id="noun_1146582_cc" transform="translate(10.000000, 25.000000)" fill="#FFFFFF" fill-rule="nonzero">
            <path d="M76.9473684,2.23125 C75.3684211,1.38125 73.3684211,1.38125 71.8947368,2.44375 L56.4210526,12.5375 L56.4210526,8.5 C56.4210526,3.825 52.6315789,0 48,0 L8.84210526,0 C4.21052632,0 0.421052632,3.825 0.421052632,8.5 L0.421052632,42.5 C0.421052632,47.175 4.21052632,51 8.84210526,51 L48,51 C52.6315789,51 56.4210526,47.175 56.4210526,42.5 L56.4210526,38.4625 L71.8947368,48.55625 C72.7368421,49.0875 73.6842105,49.40625 74.6315789,49.40625 C75.4736842,49.40625 76.2105263,49.19375 77.0526316,48.76875 C78.7368421,47.8125 79.6842105,46.1125 79.6842105,44.2 L79.6842105,6.90625 C79.5789474,4.8875 78.6315789,3.1875 76.9473684,2.23125 Z M52.2105263,42.5 C52.2105263,44.8375 50.3157895,46.75 48,46.75 L8.84210526,46.75 C6.52631579,46.75 4.63157895,44.8375 4.63157895,42.5 L4.63157895,8.5 C4.63157895,6.1625 6.52631579,4.25 8.84210526,4.25 L48,4.25 C50.3157895,4.25 52.2105263,6.1625 52.2105263,8.5 L52.2105263,42.5 Z M75.3684211,44.09375 C75.3684211,44.625 75.0526316,44.8375 74.8421053,44.94375 C74.6315789,45.05 74.4210526,45.15625 74,44.94375 L56.4210526,33.3625 L56.4210526,17.6375 L74.2105263,6.05625 C74.5263158,5.84375 74.8421053,5.95 75.0526316,6.05625 C75.1578947,6.1625 75.5789474,6.375 75.5789474,6.90625 L75.5789474,44.09375 L75.3684211,44.09375 Z" id="Shape"></path>
        </g>
    </g>
</svg>