<?xml version="1.0" encoding="UTF-8"?>
<svg width="50px" height="50px" viewBox="0 0 50 50" version="1.1" xmlns="http://www.w3.org/2000/svg" xmlns:xlink="http://www.w3.org/1999/xlink">
    <!-- Generator: Sketch 50.2 (55047) - http://www.bohemiancoding.com/sketch -->
    <title>view_all</title>
    <desc>Created with Sketch.</desc>
    <defs></defs>

    <g id="view_all" stroke="none" stroke-width="1" fill="none" fill-rule="evenodd">
        <g id="Group" transform="translate(2.000000, 5.000000)" fill="#7f7f7f" fill-rule="nonzero">
            <path d="M3.6140315,7.95 L43.3859685,7.95 C45.2346152,7.95 46.25,8.97683518 46.25,10.843475 L46.25,38.356525 C46.25,40.2725249 45.283547,41.25 43.3859685,41.25 L3.6140315,41.25 C1.69162092,41.25 0.75,40.2978589 0.75,38.356525 L0.75,10.843475 C0.75,8.97683518 1.76538483,7.95 3.6140315,7.95 Z M3.6140315,38.7 L43.3859685,38.7 C43.5181341,38.7 43.617763,38.6939856 43.6876314,38.6859707 C43.6973624,38.6161503 43.7045919,38.500928 43.7045919,38.356525 L43.7045919,10.4213665 L3.29540806,10.514514 L3.29540806,38.356525 C3.29540806,38.5031374 3.30263215,38.614626 3.3102686,38.6870093 C3.39778744,38.6952771 3.49615848,38.7 3.6140315,38.7 Z" id="Shape"></path>
            <path d="M6.11363636,6.56 L40.8863636,6.56 C41.4519318,6.56 41.9090909,6.00896 41.9090909,5.33 C41.9090909,4.65104 41.4519318,4.1 40.8863636,4.1 L6.11363636,4.1 C5.54806818,4.1 5.09090909,4.65104 5.09090909,5.33 C5.09090909,6.00896 5.54806818,6.56 6.11363636,6.56 Z" id="Shape"></path>
            <path d="M10.2045455,2.46 L36.7954545,2.46 C37.3610227,2.46 37.8181818,1.90896 37.8181818,1.23 C37.8181818,0.55104 37.3610227,0 36.7954545,0 L10.2045455,0 C9.63897727,0 9.18181818,0.55104 9.18181818,1.23 C9.18181818,1.90896 9.63897727,2.46 10.2045455,2.46 Z" id="Shape"></path>
        </g>
    </g>
</svg>