<svg xmlns="http://www.w3.org/2000/svg" width="50" height="50" viewBox="0 0 50 50">
    <g fill="none" fill-rule="evenodd">
        <path d="M0 0h50v50H0z"/>
        <g fill="#7f7f7f" fill-rule="nonzero">
            <path d="M37.414 4.75c1.445 0 2.513 1.28 2.513 2.71l.22 25.54v9.538c0 1.472-1.25 2.712-2.733 2.712h-24.31c-1.607 0-2.846-1.263-2.733-2.814V7.462c0-1.472 1.25-2.712 2.732-2.712h24.31zm-.25 2.962h-23.81v34.576h23.81V7.712z"/>
            <path d="M17.995 25.304a.9.9 0 0 0 .091.121A9.482 9.482 0 0 0 25.5 29c5.239 0 9.5-4.262 9.5-9.5a9.448 9.448 0 0 0-2.005-5.817.948.948 0 0 0-.092-.122 9.48 9.48 0 0 0-14.751-.072.968.968 0 0 0-.186.247A9.442 9.442 0 0 0 16 19.5c0 2.186.75 4.196 1.995 5.804zm1.19-9.96c.714.232 1.49.42 2.302.566-.143.84-.236 1.723-.274 2.616h-3.208a7.505 7.505 0 0 1 1.18-3.183zm13.811 3.182h-3.21a21.023 21.023 0 0 0-.274-2.618 17.494 17.494 0 0 0 2.3-.568 7.501 7.501 0 0 1 1.184 3.186zM31.82 23.65a17.586 17.586 0 0 0-2.305-.57c.144-.842.235-1.725.273-2.62h3.21a7.518 7.518 0 0 1-1.178 3.19zm-7.95 1.072c.533-.04 1.076-.062 1.626-.062.552 0 1.099.022 1.635.063-.517 1.534-1.187 2.343-1.63 2.343-.442 0-1.114-.81-1.63-2.344zm-1.403 1.704a7.572 7.572 0 0 1-1.874-1.18c.425-.11.87-.203 1.33-.283.156.525.338 1.015.544 1.463zm5.387-5.965c-.039.87-.126 1.657-.25 2.363a23.603 23.603 0 0 0-2.108-.098c-.71 0-1.411.035-2.098.096a18.29 18.29 0 0 1-.25-2.361h4.706zm-4.706-1.935c.039-.87.128-1.656.252-2.361a23.59 23.59 0 0 0 2.096.095c.712 0 1.416-.035 2.105-.096.125.704.214 1.492.252 2.362h-4.705zm5.93 6.439c.459.08.904.174 1.328.284a7.579 7.579 0 0 1-1.872 1.177c.207-.447.388-.936.544-1.461zm-.003-10.942a10.983 10.983 0 0 0-.54-1.45 7.558 7.558 0 0 1 1.86 1.168c-.422.11-.864.202-1.32.282zm-1.949.241a21.86 21.86 0 0 1-3.25 0c.516-1.525 1.184-2.33 1.625-2.33.441 0 1.11.804 1.625 2.33zm-5.2-.239c-.456-.08-.9-.173-1.32-.282a7.57 7.57 0 0 1 1.862-1.17c-.206.444-.386.931-.542 1.452zm-.714 6.436c.039.893.13 1.776.273 2.617-.814.147-1.59.335-2.305.568a7.513 7.513 0 0 1-1.177-3.185h3.21zM16.207 34.436h18c.414 0 .827-.41.827-.82s-.413-.821-.827-.821h-18c-.414 0-.828.41-.828.82s.414.82.828.82zM16.207 38.256h18c.414 0 .827-.41.827-.82s-.413-.82-.827-.82h-18c-.414 0-.828.41-.828.82s.414.82.828.82z"/>
        </g>
    </g>
</svg>
