<?xml version="1.0" encoding="UTF-8"?>
<svg width="70px" height="70px" viewBox="0 0 70 70" version="1.1" xmlns="http://www.w3.org/2000/svg" xmlns:xlink="http://www.w3.org/1999/xlink">
    <!-- Generator: Sketch 49.3 (51167) - http://www.bohemiancoding.com/sketch -->
    <title>Artboard 3</title>
    <desc>Created with Sketch.</desc>
    <defs>
        <circle id="path-1" cx="32.5" cy="32.5" r="32.5"></circle>
    </defs>
    <g id="Artboard-3" stroke="none" stroke-width="1" fill="none" fill-rule="evenodd">
        <g id="Group" transform="translate(3.000000, 3.000000)">
            <mask id="mask-2" fill="white">
                <use xlink:href="#path-1"></use>
            </mask>
            <use id="Oval-Copy-4" fill="#000000" xlink:href="#path-1"></use>
            <path d="M32.8421268,15.7368421 C23.401962,15.7368421 15.7368421,23.4020576 15.7368421,32.8421699 C15.7368421,42.2823396 23.401962,49.9473684 32.8421268,49.9473684 C42.2823203,49.9473684 49.9473684,42.2823396 49.9473684,32.8421699 C49.9473684,28.5326115 48.3464907,24.5956805 45.7119312,21.5863022 L44.9085471,22.3896124 C47.3362266,25.1895108 48.8078044,28.8412068 48.8078044,32.8421699 C48.8078044,41.6660112 41.6659903,48.8078072 32.8421268,48.8078072 C24.018249,48.8078072 16.8786761,41.6660112 16.8786761,32.8421699 C16.8786761,24.0182281 24.018249,16.8786732 32.8421268,16.8786732 C36.8432437,16.8786732 40.4955379,18.349845 43.2960324,20.7770873 L44.0994164,19.9737915 C41.0898869,17.3383911 37.1525581,15.7368421 32.8421268,15.7368421 Z M49.3607223,15.7375748 C49.212476,15.7414898 49.0715864,15.8030042 48.96794,15.9090693 L34.7522065,30.1241469 C34.6171607,29.8921259 34.5194679,29.6372618 34.4775175,29.3617098 C34.4731939,29.3328192 34.4572375,29.3069558 34.433357,29.2901309 C34.4094766,29.273306 34.3797518,29.2669848 34.3510916,29.2726367 C34.3172078,29.279691 34.2888348,29.3027107 34.2749487,29.3344132 L32.6022475,32.948483 C32.5833744,32.989526 32.5923331,33.0380018 32.6246287,33.0695884 C32.6569243,33.1011749 32.7055868,33.1090554 32.7462006,33.089276 L36.3602581,31.4198734 C36.40242,31.3997487 36.4266333,31.3545797 36.4200539,31.3083266 C36.4134745,31.2620735 36.3776262,31.2254481 36.331525,31.2178786 C36.0520949,31.1704687 35.7942148,31.0699023 35.5600395,30.933563 L49.7764912,16.7145919 C49.9439529,16.550277 49.9936836,16.3001634 49.9018167,16.0842852 C49.8099499,15.8684069 49.5952369,15.7308279 49.3607223,15.7375748 Z M32.8420257,21.4385989 C26.5508274,21.4385989 21.4385796,26.5509072 21.4385796,32.8421699 C21.4385796,39.1334614 26.5508274,44.2456835 32.8420257,44.2456835 C39.1332959,44.2456835 44.2455006,39.1334614 44.2455006,32.8421699 C44.2455006,30.1070507 43.278486,27.5950021 41.669285,25.6287849 L40.8623141,26.435773 C42.2659292,28.1906857 43.1057996,30.4163642 43.1057996,32.8421699 C43.1057996,38.5171329 38.5169695,43.1059786 32.8420257,43.1059786 C27.1671107,43.1059786 22.5804068,38.5171329 22.5804068,32.8421699 C22.5804068,27.16725 27.1671107,22.5804156 32.8420257,22.5804156 C35.2679669,22.5804156 37.4936378,23.4209354 39.2490905,24.8239806 L40.0567798,24.0162455 C38.090282,22.4061915 35.5779977,21.4385989 32.8420257,21.4385989 Z M32.8420257,27.1403557 C29.6997668,27.1403557 27.140317,29.6999003 27.140317,32.8421699 C27.140317,35.9844395 29.6997668,38.5438549 32.8420257,38.5438549 C35.9842847,38.5438549 38.5436913,35.9844395 38.5436913,32.8421699 C38.5436913,32.1088971 38.3993072,31.4096731 38.145737,30.7648987 L37.1116304,31.2437385 C37.2978213,31.7415423 37.404134,32.2782796 37.404134,32.8421699 C37.404134,35.368111 35.3679583,37.4042937 32.8420257,37.4042937 C30.3160932,37.4042937 28.2820724,35.368111 28.2820724,32.8421699 C28.2820724,30.3162288 30.3160932,28.2822012 32.8420257,28.2822012 C33.3994491,28.2822012 33.9302944,28.3856409 34.4233555,28.5673788 L34.9021937,27.5316021 C34.2621624,27.2826284 33.5688311,27.1403557 32.8420257,27.1403557 Z M32.8420257,30.9423266 C31.7991555,30.9423266 30.9421888,31.7992962 30.9421888,32.8421699 L30.9414705,32.8421699 C30.9414705,33.8850437 31.7984372,34.7450302 32.8413074,34.7450302 C33.8841776,34.7450302 34.7432993,33.8850437 34.7432993,32.8421699 C34.7432993,32.6786776 34.7174394,32.5232307 34.677213,32.3713754 L33.6000066,32.8703285 C33.58564,33.2833692 33.2593749,33.6031704 32.8420257,33.6031704 C32.4154819,33.6031704 32.0810278,33.2688589 32.0810278,32.8421699 C32.0810278,32.4312843 32.392639,32.1086097 32.7966273,32.0856231 L33.2962971,31.0046778 C33.1497579,30.9687612 32.9993398,30.9429013 32.8420257,30.9429013 L32.8420257,30.9423266 Z" id="Shape" stroke="#FFFFFF" stroke-width="0.684210526" fill="#FFFFFF" fill-rule="nonzero" mask="url(#mask-2)"></path>
        </g>
    </g>
</svg>